<svg width="141" height="67" viewBox="0 0 141 67" fill="none" xmlns="http://www.w3.org/2000/svg">
<g filter="url(#filter0_b_2_1143)">
<path d="M0.629913 5.19995C0.629913 2.43852 2.86849 0.199951 5.62991 0.199951H135.959C138.72 0.199951 140.959 2.43853 140.959 5.19995V61.8583C140.959 64.6197 138.72 66.8583 135.959 66.8583H5.62991C2.86848 66.8583 0.629913 64.6197 0.629913 61.8583V5.19995Z" fill="black" fill-opacity="0.5"/>
</g>
<path d="M32.6772 32.2253C32.6772 33.1656 32.501 33.971 32.1488 34.6415C31.7993 35.3091 31.3221 35.8205 30.717 36.1756C30.1147 36.5307 29.4314 36.7082 28.6672 36.7082C27.903 36.7082 27.2184 36.5307 26.6133 36.1756C26.011 35.8176 25.5337 35.3048 25.1814 34.6372C24.832 33.9668 24.6573 33.1628 24.6573 32.2253C24.6573 31.285 24.832 30.481 25.1814 29.8134C25.5337 29.1429 26.011 28.6301 26.6133 28.275C27.2184 27.9199 27.903 27.7423 28.6672 27.7423C29.4314 27.7423 30.1147 27.9199 30.717 28.275C31.3221 28.6301 31.7993 29.1429 32.1488 29.8134C32.501 30.481 32.6772 31.285 32.6772 32.2253ZM31.0877 32.2253C31.0877 31.5634 30.984 31.0051 30.7766 30.5506C30.5721 30.0932 30.288 29.748 29.9243 29.5151C29.5607 29.2793 29.1417 29.1614 28.6672 29.1614C28.1928 29.1614 27.7738 29.2793 27.4101 29.5151C27.0465 29.748 26.761 30.0932 26.5536 30.5506C26.3491 31.0051 26.2468 31.5634 26.2468 32.2253C26.2468 32.8872 26.3491 33.4469 26.5536 33.9043C26.761 34.3588 27.0465 34.704 27.4101 34.9398C27.7738 35.1727 28.1928 35.2892 28.6672 35.2892C29.1417 35.2892 29.5607 35.1727 29.9243 34.9398C30.288 34.704 30.5721 34.3588 30.7766 33.9043C30.984 33.4469 31.0877 32.8872 31.0877 32.2253ZM35.4119 27.8617V28.731C35.4119 28.981 35.3636 29.2409 35.267 29.5108C35.1733 29.7778 35.044 30.0335 34.8792 30.2778C34.7145 30.5193 34.527 30.7267 34.3167 30.9L33.6008 30.4355C33.7571 30.1997 33.8934 29.9455 34.0099 29.6727C34.1264 29.3972 34.1846 29.0861 34.1846 28.7395V27.8617H35.4119ZM36.5763 36.5889V35.6046L41.0508 29.1869H36.5508V27.8617H43.011V28.846L38.5408 35.2636H43.0366V36.5889H36.5763ZM44.5664 36.5889V27.8617H47.9073C48.538 27.8617 49.0621 27.9611 49.4797 28.16C49.9002 28.356 50.2141 28.6244 50.4215 28.9653C50.6317 29.3063 50.7368 29.6926 50.7368 30.1244C50.7368 30.4796 50.6687 30.7835 50.5323 31.0364C50.3959 31.2864 50.2127 31.4895 49.9826 31.6457C49.7525 31.802 49.4954 31.9142 49.2113 31.9824V32.0676C49.5209 32.0847 49.8178 32.1798 50.1019 32.3531C50.3888 32.5236 50.6232 32.7651 50.805 33.0776C50.9868 33.3901 51.0777 33.7679 51.0777 34.2111C51.0777 34.6628 50.9684 35.069 50.7496 35.4298C50.5309 35.7878 50.2013 36.0705 49.761 36.2778C49.3206 36.4852 48.7667 36.5889 48.0991 36.5889H44.5664ZM46.1473 35.2679H47.8476C48.4215 35.2679 48.8348 35.1585 49.0877 34.9398C49.3434 34.7182 49.4712 34.4341 49.4712 34.0875C49.4712 33.829 49.4073 33.596 49.2795 33.3886C49.1516 33.1784 48.9698 33.0136 48.734 32.8943C48.4982 32.7722 48.217 32.7111 47.8902 32.7111H46.1473V35.2679ZM46.1473 31.5733H47.7113C47.984 31.5733 48.2297 31.5236 48.4485 31.4242C48.6672 31.3219 48.8391 31.1784 48.9641 30.9938C49.092 30.8063 49.1559 30.5847 49.1559 30.329C49.1559 29.9909 49.0366 29.7125 48.7979 29.4938C48.5621 29.275 48.2113 29.1656 47.7454 29.1656H46.1473V31.5733ZM52.4531 36.5889V27.8617H58.1292V29.1869H54.0341V31.5563H57.8352V32.8815H54.0341V35.2636H58.1633V36.5889H52.4531ZM59.7422 36.5889V27.8617H61.3231V31.8716H61.4297L64.8345 27.8617H66.7649L63.3899 31.7778L66.7947 36.5889H64.8942L62.2905 32.8475L61.3231 33.9895V36.5889H59.7422ZM69.4442 27.8617V36.5889H67.8633V27.8617H69.4442ZM75.8991 30.2608C75.8594 29.8886 75.6917 29.5989 75.3963 29.3915C75.1037 29.1841 74.723 29.0804 74.2542 29.0804C73.9247 29.0804 73.642 29.1301 73.4062 29.2296C73.1704 29.329 72.99 29.4639 72.865 29.6344C72.74 29.8048 72.6761 29.9994 72.6733 30.2182C72.6733 30.4 72.7145 30.5577 72.7969 30.6912C72.8821 30.8247 72.9971 30.9384 73.142 31.0321C73.2869 31.123 73.4474 31.1997 73.6236 31.2622C73.7997 31.3247 73.9772 31.3773 74.1562 31.4199L74.9744 31.6244C75.304 31.7011 75.6207 31.8048 75.9247 31.9355C76.2315 32.0662 76.5057 32.231 76.7471 32.4298C76.9915 32.6287 77.1846 32.8688 77.3267 33.15C77.4687 33.4313 77.5397 33.7608 77.5397 34.1386C77.5397 34.65 77.4091 35.1003 77.1477 35.4895C76.8863 35.8759 76.5085 36.1784 76.0142 36.3972C75.5227 36.6131 74.9275 36.721 74.2287 36.721C73.5497 36.721 72.9602 36.6159 72.4602 36.4057C71.963 36.1955 71.5738 35.8886 71.2926 35.4852C71.0142 35.0818 70.8636 34.5903 70.8409 34.0108H72.3963C72.419 34.3148 72.5128 34.5676 72.6775 34.7693C72.8423 34.971 73.0568 35.1216 73.321 35.221C73.588 35.3205 73.8863 35.3702 74.2159 35.3702C74.5596 35.3702 74.8608 35.319 75.1193 35.2168C75.3807 35.1117 75.5852 34.9668 75.7329 34.7821C75.8807 34.5946 75.9559 34.3759 75.9588 34.1259C75.9559 33.8986 75.8892 33.7111 75.7585 33.5634C75.6278 33.4128 75.4446 33.2878 75.2088 33.1884C74.9758 33.0861 74.7031 32.9952 74.3906 32.9156L73.3977 32.66C72.679 32.4753 72.1108 32.1955 71.6932 31.8205C71.2784 31.4426 71.071 30.9412 71.071 30.3162C71.071 29.802 71.2102 29.3517 71.4886 28.9653C71.7699 28.579 72.152 28.2793 72.6349 28.0662C73.1179 27.8503 73.6647 27.7423 74.2755 27.7423C74.8949 27.7423 75.4375 27.8503 75.9034 28.0662C76.3721 28.2793 76.74 28.5761 77.0071 28.9568C77.2741 29.3347 77.4119 29.7693 77.4204 30.2608H75.8991ZM78.5657 29.1869V27.8617H85.5287V29.1869H82.8313V36.5889H81.2631V29.1869H78.5657ZM94.2826 32.2253C94.2826 33.1656 94.1065 33.971 93.7542 34.6415C93.4048 35.3091 92.9275 35.8205 92.3224 36.1756C91.7201 36.5307 91.0369 36.7082 90.2727 36.7082C89.5085 36.7082 88.8238 36.5307 88.2187 36.1756C87.6165 35.8176 87.1392 35.3048 86.7869 34.6372C86.4375 33.9668 86.2628 33.1628 86.2628 32.2253C86.2628 31.285 86.4375 30.481 86.7869 29.8134C87.1392 29.1429 87.6165 28.6301 88.2187 28.275C88.8238 27.9199 89.5085 27.7423 90.2727 27.7423C91.0369 27.7423 91.7201 27.9199 92.3224 28.275C92.9275 28.6301 93.4048 29.1429 93.7542 29.8134C94.1065 30.481 94.2826 31.285 94.2826 32.2253ZM92.6932 32.2253C92.6932 31.5634 92.5895 31.0051 92.3821 30.5506C92.1775 30.0932 91.8934 29.748 91.5298 29.5151C91.1662 29.2793 90.7471 29.1614 90.2727 29.1614C89.7983 29.1614 89.3792 29.2793 89.0156 29.5151C88.652 29.748 88.3665 30.0932 88.1591 30.5506C87.9545 31.0051 87.8522 31.5634 87.8522 32.2253C87.8522 32.8872 87.9545 33.4469 88.1591 33.9043C88.3665 34.3588 88.652 34.704 89.0156 34.9398C89.3792 35.1727 89.7983 35.2892 90.2727 35.2892C90.7471 35.2892 91.1662 35.1727 91.5298 34.9398C91.8934 34.704 92.1775 34.3588 92.3821 33.9043C92.5895 33.4469 92.6932 32.8872 92.6932 32.2253ZM102.949 27.8617V36.5889H101.543L97.4307 30.6443H97.3583V36.5889H95.7773V27.8617H97.1921L101.3 33.8105H101.377V27.8617H102.949Z" fill="white"/>
<path d="M0.629929 65.6892C0.629929 65.0432 1.15362 64.5195 1.79963 64.5195H139.789C140.435 64.5195 140.959 65.0432 140.959 65.6892C140.959 66.3352 140.435 66.8589 139.789 66.8589H1.79964C1.15363 66.8589 0.629929 66.3352 0.629929 65.6892Z" fill="#7596FF"/>
<defs>
<filter id="filter0_b_2_1143" x="-14.3701" y="-14.8" width="170.329" height="96.6583" filterUnits="userSpaceOnUse" color-interpolation-filters="sRGB">
<feFlood flood-opacity="0" result="BackgroundImageFix"/>
<feGaussianBlur in="BackgroundImage" stdDeviation="7.5"/>
<feComposite in2="SourceAlpha" operator="in" result="effect1_backgroundBlur_2_1143"/>
<feBlend mode="normal" in="SourceGraphic" in2="effect1_backgroundBlur_2_1143" result="shape"/>
</filter>
</defs>
</svg>
